<svg id="Layer_1" data-name="Layer 1" xmlns="http://www.w3.org/2000/svg" viewBox="0 0 75.36 80.64"><defs><style>.cls-1{opacity:0.05;}.cls-2{fill:#156595;}.cls-3{fill:#b8acd2;}.cls-4{fill:#fff;}.cls-5{fill:#324654;}.cls-6{fill:#7e7799;}</style></defs><g class="cls-1"><path class="cls-2" d="M73.67,71.91c0,4.82-15.77,8.73-35.22,8.73S3.23,76.73,3.23,71.91,19,63.18,38.45,63.18,73.67,67.09,73.67,71.91Z"/></g><circle class="cls-3" cx="37.68" cy="38.53" r="35.46"/><circle class="cls-4" cx="37.68" cy="38.42" r="22.9"/><circle class="cls-5" cx="63.81" cy="38.42" r="1.48"/><circle class="cls-5" cx="11.36" cy="38.42" r="1.48"/><circle class="cls-5" cx="37.96" cy="64.27" r="1.48"/><path class="cls-5" d="M36.31,50.35H23.92V48.87c0-2.91,2.59-5.35,5.41-7.94,2.34-2.14,5-4.57,5-6.62a3.75,3.75,0,0,0-3.78-3.76c-1.3,0-4.35.42-4.35,4.35a1.49,1.49,0,0,1-3,0c0-5.39,3.94-7.31,7.3-7.31a6.66,6.66,0,0,1,6.72,6.72c0,3.35-3,6.12-6,8.8a20.37,20.37,0,0,0-4,4.28h9.08a1.48,1.48,0,0,1,0,3Z"/><path class="cls-5" d="M48.3,50.35a1.48,1.48,0,0,1-1.48-1.48V44.44H39.43a1.47,1.47,0,0,1-1.29-.77,1.49,1.49,0,0,1,0-1.5l8.87-14a1.48,1.48,0,0,1,1.66-.64,1.5,1.5,0,0,1,1.07,1.42V41.48h2.95a1.48,1.48,0,0,1,0,3H49.78v4.43A1.48,1.48,0,0,1,48.3,50.35Zm-6.18-8.87h4.7V34Z"/><path class="cls-6" d="M37.7,11.71a35.39,35.39,0,0,1,35.11,31,36.68,36.68,0,0,0,.27-4.35,35.39,35.39,0,0,0-70.77,0,34.67,34.67,0,0,0,.28,4.35A35.38,35.38,0,0,1,37.7,11.71Z"/><path class="cls-5" d="M37.68,75.36A37.68,37.68,0,0,1,37.68,0,37.29,37.29,0,0,1,60.74,7.88,2.22,2.22,0,1,1,58,11.38a32.94,32.94,0,0,0-20.34-7A33.25,33.25,0,1,0,70.92,37.68a2.22,2.22,0,1,1,4.44,0A37.73,37.73,0,0,1,37.68,75.36Z"/><path class="cls-5" d="M62.34,15.63H52a2.22,2.22,0,0,1,0-4.44h8.13V2.85a2.22,2.22,0,1,1,4.43,0V13.3A2.32,2.32,0,0,1,62.34,15.63Z"/><circle class="cls-5" cx="37.96" cy="12.56" r="1.48"/></svg>