<?xml version="1.0" encoding="UTF-8"?><svg id="Layer_1" xmlns="http://www.w3.org/2000/svg" viewBox="0 0 19.7 19.7"><path d="M15.8,5.7c.2,0,.4-.1,.4-.4V1.2c0-.6-.5-1.2-1.1-1.2H1.1C.5,0,0,.5,0,1.2V18.6c0,.6,.5,1.1,1.2,1.1H15.9c.2,0,.4-.2,.4-.4v-3.8c-.3-.3-.7-.1-.7,.2v2.8c0,.2-.2,.4-.4,.4H1.2c-.2,0-.4-.2-.4-.4V1.2c0-.2,.2-.4,.4-.4H15.2c.2,0,.4,.2,.4,.4V5.4c-.1,.1,0,.3,.2,.3h0Z" style="fill:#006497;"/><path d="M8.1,2.1c-1.9,0-3.5,1.6-3.5,3.5,0,1,.4,1.9,1.1,2.6h0c.6,.6,1.5,.9,2.4,.9s1.8-.4,2.4-.9h0c.7-.6,1.1-1.6,1.1-2.6,.1-2-1.5-3.5-3.5-3.5Zm0,6.3c-.6,0-1.2-.2-1.7-.6,.3-.6,1-1,1.7-1s1.3,.4,1.7,1c-.4,.4-1,.6-1.7,.6Zm-.6-3v-.2c0-.3,.2-.6,.5-.6,.4,0,.7,.2,.7,.6v.2c0,.3-.2,.6-.5,.6-.3,.1-.7-.2-.7-.6Zm2.9,1.8c-.3-.4-.7-.8-1.1-.9,.2-.2,.3-.5,.3-.8v-.3c0-.7-.6-1.4-1.3-1.4-.8,0-1.5,.6-1.5,1.4v.2c0,.3,.1,.6,.3,.8-.5,.3-.9,.6-1.2,1-.3-.4-.5-1.1-.5-1.7,.1-1.5,1.3-2.6,2.7-2.7,1.6,0,2.8,1.2,2.8,2.8,0,.6-.2,1.2-.5,1.6h0Z" style="fill:#006497;"/><path d="M10.2,16.8h-2.1c-.2,0-.4,.1-.4,.3s.1,.4,.4,.4h2.1c.2,0,.4-.1,.4-.3s-.2-.4-.4-.4Z" style="fill:#006497;"/><path d="M10.2,14.7H4.8c-.2,0-.4,.1-.4,.3s.1,.4,.4,.4h5.4c.2,0,.4-.1,.4-.3s-.2-.4-.4-.4Z" style="fill:#006497;"/><path d="M10.2,12.5H4.8c-.2,0-.4,.1-.4,.3s.1,.4,.4,.4h5.4c.2,0,.4-.1,.4-.3s-.2-.4-.4-.4Z" style="fill:#006497;"/><path d="M3.4,10.5c-.1-.1-.2-.1-.3-.1s-.2,0-.3,.1-.1,.2-.1,.3,0,.2,.1,.3,.2,.1,.3,.1,.2,0,.3-.1,.1-.2,.1-.3,0-.3-.1-.3Z" style="fill:#006497;"/><path d="M3.4,12.6c-.1-.1-.2-.1-.3-.1s-.2,0-.3,.1-.1,.2-.1,.3,0,.2,.1,.3,.2,.1,.3,.1,.2,0,.3-.1,.1-.2,.1-.3,0-.2-.1-.3Z" style="fill:#006497;"/><path d="M3.4,14.8c-.1-.1-.2-.1-.3-.1s-.2,0-.3,.1-.1,.2-.1,.3,0,.2,.1,.3,.2,.1,.3,.1,.2,0,.3-.1,.1-.2,.1-.3,0-.3-.1-.3Z" style="fill:#006497;"/><path d="M10.2,10.4H4.8c-.2,0-.4,.1-.4,.3s.1,.4,.4,.4h5.4c.2,0,.4-.1,.4-.3s-.2-.4-.4-.4Z" style="fill:#006497;"/><path d="M18.8,5c-.4-.2-.8-.3-1.2-.2s-.8,.4-1,.8l-4.8,8.4v.1l-.3,3c0,.1,.1,.3,.2,.4h.2c.1,0,.2,0,.2-.1l2.5-1.8,.1-.1,4.8-8.4c.4-.7,.1-1.7-.7-2.1h0Zm-6.5,11.4l.2-1.6,1.1,.6-1.3,1Zm1.8-1.5l-1.4-.9,3.9-6.7,1.4,.8-3.9,6.8Zm4.7-8.1l-.4,.7-1.5-.9,.4-.6c.1-.2,.3-.3,.5-.4s.5,0,.6,.1c.2,.1,.3,.3,.4,.5,.1,.2,.1,.4,0,.6h0Z" style="fill:#006497;"/></svg>