<?xml version="1.0" encoding="UTF-8"?><svg id="a" xmlns="http://www.w3.org/2000/svg" viewBox="0 0 22.36 21.29"><path d="M22.33,11.93c-.17-1.14-1.06-2.04-2.21-2.21v-.68c0-1.87-1.42-3.39-3.17-3.39s-3.12,1.48-3.17,3.29h0v7.35c0,2.35-1.76,4.25-3.91,4.25s-3.91-1.91-3.91-4.25v-.64c.54,0,1.12-.39,1.12-1.49v-.94c2.39-.61,4.1-2.67,4.1-4.99v-.78h-.75l-.02-4.85c0-.9-.64-1.66-1.5-1.82-.2-.62-.89-.94-1.49-.67-.46,.21-.71,.72-.62,1.22,.13,.67,.79,1.05,1.41,.85,.31-.1,.55-.34,.67-.64,.47,.14,.79,.57,.79,1.07l.02,4.85h-.76v.79c-.03,1.3-.9,2.42-2.14,2.78-.67,.21-1.38,.21-2.05,0-1.24-.36-2.11-1.49-2.14-2.78v-.79H1.49V2.61c0-.5,.34-.94,.83-1.07,.24,.6,.93,.88,1.52,.61,.51-.24,.77-.83,.59-1.36-.2-.62-.88-.94-1.48-.7-.31,.12-.55,.38-.66,.7-.89,.15-1.55,.93-1.55,1.83V7.45H0v.78c0,2.33,1.71,4.39,4.1,5v.94c0,1.1,.58,1.49,1.12,1.49v.64c0,2.76,2.09,5,4.66,5s4.66-2.24,4.66-5v-7.33c.04-1.41,1.12-2.56,2.42-2.56s2.42,1.19,2.42,2.65v.68c-1.47,.21-2.47,1.6-2.19,3.08,.25,1.31,1.48,2.23,2.81,2.1,1.49-.15,2.54-1.5,2.33-2.97ZM7.83,1.49c-.21,0-.37-.17-.37-.37s.17-.37,.37-.37,.37,.17,.37,.37-.17,.37-.37,.37ZM3.35,.75c.21,0,.37,.17,.37,.37s-.17,.37-.37,.37-.37-.17-.37-.37,.17-.37,.37-.37ZM.75,8.23v-.03H1.86v.04c.03,1.62,1.11,3.03,2.66,3.49,.81,.26,1.69,.26,2.5,0,1.56-.46,2.63-1.87,2.66-3.49v-.04h.75v.03c0,2.07-1.6,3.9-3.8,4.34-.52,.1-1.05,.13-1.57,.08-.17-.02-.34-.04-.51-.08-2.2-.44-3.8-2.26-3.8-4.34Zm4.47,6.68c-.34,0-.37-.52-.37-.75v-.79s.06,0,.09,0c.04,0,.07,0,.11,.01,.18,.02,.35,.03,.53,.03h.02c.18,0,.36-.01,.53-.03,.04,0,.08,0,.12-.01,.03,0,.06,0,.09,0v.79c0,.22-.04,.75-.37,.75h-.75Zm14.53-.74c-1.03,0-1.86-.83-1.86-1.86s.83-1.86,1.86-1.86,1.86,.83,1.86,1.86c0,1.03-.83,1.86-1.86,1.86Z" style="fill:#146394;"/><path d="M19.75,11.18c-.62,0-1.12,.5-1.12,1.12s.5,1.12,1.12,1.12,1.12-.5,1.12-1.12-.5-1.12-1.12-1.12Zm0,1.49c-.21,0-.37-.17-.37-.37s.17-.37,.37-.37,.37,.17,.37,.37-.17,.37-.37,.37Z" style="fill:#146394;"/></svg>