<svg id="Layer_1" data-name="Layer 1" xmlns="http://www.w3.org/2000/svg" xmlns:xlink="http://www.w3.org/1999/xlink" viewBox="0 0 72.11 78.02"><defs><style>.cls-1{fill:none;}.cls-2{opacity:0.05;}.cls-3{fill:#156595;}.cls-4{fill:#b9e3ed;}.cls-5,.cls-6{fill:#324654;}.cls-6{opacity:0.2;}.cls-7{fill:#fff;}.cls-8{clip-path:url(#clip-path);}</style><clipPath id="clip-path"><path class="cls-1" d="M42.05,17.06a17.67,17.67,0,1,1-25,0A17.67,17.67,0,0,1,42.05,17.06Z"/></clipPath></defs><g class="cls-2"><path class="cls-3" d="M68.59,69.75c0,4.57-14.94,8.27-33.37,8.27S1.86,74.32,1.86,69.75s14.94-8.27,33.36-8.27S68.59,65.19,68.59,69.75Z"/></g><path class="cls-4" d="M20.65,18.88a6.94,6.94,0,0,1,9.86,0L68,57.05A7.09,7.09,0,0,1,68,67l-.7.71a7.09,7.09,0,0,1-9.94,0L19.17,30.25a7,7,0,0,1,0-9.86Z"/><path class="cls-5" d="M62.26,71.85a9.16,9.16,0,0,1-6.43-2.61L17.7,31.75a9,9,0,0,1-.05-12.84l1.52-1.38A8.82,8.82,0,0,1,25.56,15h0A8.83,8.83,0,0,1,32,17.58L69.49,55.65a9.14,9.14,0,0,1,0,12.86l-.71.69A9.11,9.11,0,0,1,62.26,71.85ZM25.56,19.22A6.46,6.46,0,0,0,21.8,20.5v-.07l-1.35,1.48a4.68,4.68,0,0,0-1.33,3.43,4.83,4.83,0,0,0,1.49,3.42L58.76,66.24a5,5,0,0,0,7,0l.71-.7a5,5,0,0,0,0-7L29,20.53a4.65,4.65,0,0,0-3.43-1.31Z"/><rect class="cls-6" x="47.15" y="48.86" width="10.6" height="6.52" transform="translate(-21.5 52.35) rotate(-45)"/><path class="cls-4" d="M49,10.14a27.46,27.46,0,1,1-38.83,0A27.46,27.46,0,0,1,49,10.14Z"/><path class="cls-5" d="M29.55,59.09A29.54,29.54,0,0,1,8.66,8.66,29.56,29.56,0,0,1,59.11,29.55,29.53,29.53,0,0,1,29.55,59.09Zm0-54.89a25.36,25.36,0,1,0,17.93,7.43h0A25.18,25.18,0,0,0,29.55,4.2Z"/><path class="cls-7" d="M42.05,17.06a17.67,17.67,0,1,1-25,0A17.67,17.67,0,0,1,42.05,17.06Z"/><g class="cls-8"><polygon class="cls-4" points="12.45 37.22 39.53 10.14 44.72 15.33 14.75 45.29 12.45 37.22"/><rect class="cls-4" x="16.03" y="32.33" width="35.86" height="3.26" transform="translate(-14.07 33.96) rotate(-45)"/></g><path class="cls-5" d="M28.66,48.63C18.94,48.63,11,40.07,11,29.55s7.9-19.07,17.62-19.07S46.28,19,46.28,29.55a1.3,1.3,0,1,1-2.59,0c0-9-6.74-16.27-15-16.27s-15,7.3-15,16.27,6.74,16.28,15,16.28a1.4,1.4,0,0,1,0,2.8Z"/></svg>