<svg id="Layer_1" data-name="Layer 1" xmlns="http://www.w3.org/2000/svg" viewBox="0 0 78.69 88.33"><defs><style>.cls-1{opacity:0.5;}.cls-2{fill:#b8cbcd;}.cls-3{fill:#ebbc96;}.cls-4{fill:#4f4f4f;}.cls-5{fill:#b8acd2;}.cls-6{fill:#324654;}.cls-7{fill:#e7e4ef;}.cls-8{fill:#fff;}.cls-9{fill:#1e3a1e;opacity:0.2;}.cls-10{fill:#d6d0cc;}</style></defs><g class="cls-1"><path class="cls-2" d="M66.86,80.19c0,4.5-14.72,8.14-32.87,8.14S1.12,84.69,1.12,80.19,15.83,72,34,72,66.86,75.69,66.86,80.19Z"/></g><path class="cls-3" d="M51,50.74a4.39,4.39,0,0,0-6.19.58l-3.57,4.31A4.4,4.4,0,0,0,35,50.29a4.4,4.4,0,0,0-7-5.24L8.5,68.51A4.4,4.4,0,0,0,14,75.16a4.4,4.4,0,0,0,7.06,5.23l3.57-4.31a4.4,4.4,0,0,0,7.52,4.31L51.61,56.93A4.39,4.39,0,0,0,51,50.74Z"/><path class="cls-4" d="M17.68,84.05a6.49,6.49,0,0,1-6.46-6.29,6.53,6.53,0,0,1-5.78-5.84A6.48,6.48,0,0,1,6.9,67.18L26.34,43.73a6.48,6.48,0,0,1,11.46,4,6.56,6.56,0,0,1,4.84,3l.6-.73a6.47,6.47,0,0,1,9.11-.85h0a6.46,6.46,0,0,1,.85,9.1L33.76,81.71a6.46,6.46,0,0,1-9.1.85A6.26,6.26,0,0,1,23.28,81l-.61.73A6.4,6.4,0,0,1,18.3,84C18.09,84,17.89,84.05,17.68,84.05Zm7-10a2,2,0,0,1,1,.28,2.07,2.07,0,0,1,.92,2.5,2.33,2.33,0,0,0,4,2.28L50,55.61a2.34,2.34,0,0,0-.31-3.28,2.33,2.33,0,0,0-3.28.31L42.86,57a2.07,2.07,0,0,1-3.54-2A2.33,2.33,0,0,0,36,52.09a2.07,2.07,0,0,1-2.73-3,2.33,2.33,0,0,0-3.74-2.77L10.09,69.83a2.29,2.29,0,0,0-.53,1.7,2.34,2.34,0,0,0,.84,1.58,2.31,2.31,0,0,0,2.62.24,2.06,2.06,0,0,1,2.52.4,2.08,2.08,0,0,1,.21,2.55,2.33,2.33,0,0,0,3.74,2.77l3.57-4.31A2,2,0,0,1,24.65,74Z"/><rect class="cls-5" x="3.27" y="30.44" width="62.06" height="40.69" rx="2.76"/><path class="cls-6" d="M61.38,74.54H4.83A4.83,4.83,0,0,1,0,69.72V34.55a4.83,4.83,0,0,1,4.83-4.83H61.38a4.82,4.82,0,0,1,4.82,4.83V69.72A4.82,4.82,0,0,1,61.38,74.54ZM4.83,33.86a.69.69,0,0,0-.69.69V69.72a.69.69,0,0,0,.69.68H61.38a.69.69,0,0,0,.68-.68V34.55a.69.69,0,0,0-.68-.69Z"/><rect class="cls-6" x="2.07" y="37.99" width="62.75" height="8.28"/><rect class="cls-7" x="31.72" y="49.72" width="26.89" height="6.9"/><path class="cls-6" d="M60,56.61A1.38,1.38,0,0,1,58.62,58H31.72a1.38,1.38,0,0,1-1.38-1.38V49.72a1.38,1.38,0,0,1,1.38-1.38h26.9A1.38,1.38,0,0,1,60,49.72ZM33.1,55.23H57.24V51.1H33.1Z"/><path class="cls-3" d="M46.27,28.54c-2-1-4.58,2-9,4.19a26.66,26.66,0,0,1-10.3,2.6A86.07,86.07,0,0,1,26,46.41c-.76,3.58-7.5,5.39-9.57.26s-2.6-13.09-1.15-17.76,6.3-8,10.18-10.07a23.45,23.45,0,0,1,4.83-2S44.86,2.63,45.13,2.28c2.81-3.53,12.24-.72,21.08,6.28S79.94,24.11,77.14,27.65C73.21,32.6,69.24,39,66,37.85c-2.34-.84-1.39-4.32-4.24-6-4.28-2.44-10.31,3.2-13.33.62C46.87,31.23,47.73,29.29,46.27,28.54Z"/><path class="cls-3" d="M66,37.85c3.57-4.5,11-10,11.19-10.2,2.8-3.54-2.1-12.08-10.93-19.09S47.94-1.25,45.13,2.28c-.27.35-14.86,14.53-14.86,14.53a23.45,23.45,0,0,0-4.83,2c-3.88,2.1-8.73,5.4-10.18,10.07s-.92,12.63,1.15,17.76S25.22,50,26,46.41a86.07,86.07,0,0,0,.95-11.08,83.08,83.08,0,0,0,10.3-2.6,48.62,48.62,0,0,0,9-4.19l2.42,1.8,4-.41V28.64"/><path class="cls-8" d="M66.21,8.56c-8.84-7-18.27-9.81-21.08-6.28-.14.18-5.74,3.25-9.05,7.35,1.83.11,3.67.23,5.51.29,3.54.12,6.8,0,10.14,1.4,5.43,2.25,9.43,7,12.65,11.8,2.19,3.26,4.22,7.13,4.44,11.11,3-3.82,8.18-6.41,8.32-6.58C79.94,24.11,75,15.57,66.21,8.56Z"/><path class="cls-9" d="M21.76,51.82a13.74,13.74,0,0,0,9.8-5.73C34,42.55,33.75,40,33.75,40s3.61-.23,9-3.13a14.86,14.86,0,0,0,6.42-6.72l-6.64-1.3L27.1,34.09l-1,11.44Z"/><path class="cls-10" d="M59,13.67c-7.5-6.15-19.05-6-19.05-6L32.8,16.75l-.13.2.14.09c7-1.69,14.68-1.26,21.19,2.91A27.19,27.19,0,0,1,65.8,35a35.18,35.18,0,0,1,4.47-4.3A33.53,33.53,0,0,0,59,13.67Z"/><path class="cls-4" d="M66.57,39.68a1.37,1.37,0,0,1-1.36-1.16c-1.14-7.11-5.28-13.13-11.95-17.41-5.79-3.7-14.42-4.48-22.15-2.4-.74.2-.31-.36-.5-1.1a1.38,1.38,0,0,1,1-1.69c8.49-2.27,16.72-1.25,23.16,2.87,7.36,4.72,11.92,11.39,13.19,19.29.12.75-.42,1.09-1.17,1.21C66.69,39.3,66.64,39.68,66.57,39.68Z"/><path class="cls-4" d="M21,51.92a6.87,6.87,0,0,1-6.48-4.47c-2.26-5.62-2.79-14-1.21-19.15,1.31-4.22,5-7.91,11.18-11.28a25.12,25.12,0,0,1,4.73-2c5-4.89,12.37-12,13.08-12.75,4.16-5.11,15.42-.73,23.92,6s15.4,16.78,11.27,22a5.24,5.24,0,0,1-1,.89,50.73,50.73,0,0,0-8.84,8,2.07,2.07,0,1,1-3.24-2.57,55.21,55.21,0,0,1,9.6-8.76l.38-.28c1.29-2.15-2.11-9.24-10.69-16C54.85,4.53,47,2.92,45.46,4.86c-.11.14-.37.46-13.75,13.44a2,2,0,0,1-.84.5,20.82,20.82,0,0,0-4.44,1.86c-5.14,2.79-8.23,5.77-9.19,8.87-1.3,4.19-.8,11.68,1.09,16.37a2.72,2.72,0,0,0,3,1.87A2.94,2.94,0,0,0,24,46a85.63,85.63,0,0,0,.92-10.71,2.05,2.05,0,0,1,1.7-2,80.91,80.91,0,0,0,10-2.52,46.88,46.88,0,0,0,8.61-4,2.07,2.07,0,0,1,2.2,3.51,51.08,51.08,0,0,1-9.47,4.39,77.94,77.94,0,0,1-9,2.35,72.51,72.51,0,0,1-.94,9.8c-.56,2.65-3.23,4.78-6.35,5C21.42,51.91,21.2,51.92,21,51.92Z"/><path class="cls-4" d="M20.66,44.75a1.39,1.39,0,0,1-1.28-.86c-.54-1.34-2.9-1.46-2.92-1.46a1.38,1.38,0,0,1,.08-2.75c.17,0,4.17.14,5.4,3.17a1.39,1.39,0,0,1-.76,1.8A1.37,1.37,0,0,1,20.66,44.75Z"/><circle class="cls-7" cx="13.55" cy="61.1" r="5.42" transform="translate(-48.94 64.68) rotate(-80.78)"/><path class="cls-6" d="M13.55,67.9a6.8,6.8,0,1,1,6.79-6.8A6.81,6.81,0,0,1,13.55,67.9Zm0-10.83a4,4,0,1,0,4,4A4,4,0,0,0,13.55,57.07Z"/><circle class="cls-7" cx="20.99" cy="61.1" r="5.42" transform="translate(-43.3 67.49) rotate(-76.72)"/><path class="cls-6" d="M21,67.9a6.8,6.8,0,1,1,6.8-6.8A6.8,6.8,0,0,1,21,67.9Zm0-10.83a4,4,0,1,0,4,4A4,4,0,0,0,21,57.07Z"/><path class="cls-5" d="M48,31.13h12.6a2.8,2.8,0,0,1,2.58,3V38"/><path class="cls-6" d="M64.13,40.79a2.07,2.07,0,0,1-2.07-2.07v-4c0-.37-.13-.89-.5-.89H48.75a2.07,2.07,0,0,1,0-4.14H61.56a4.86,4.86,0,0,1,4.64,5v4A2.07,2.07,0,0,1,64.13,40.79Z"/></svg>